<?xml version="1.0" standalone="no"?><svg xmlns="http://www.w3.org/2000/svg" viewBox="0 0 1440 320"><path fill="#F472B6" fill-opacity="1" d="M0,192L34.3,208C68.6,224,137,256,206,250.7C274.3,245,343,203,411,192C480,181,549,203,617,224C685.7,245,754,267,823,261.3C891.4,256,960,224,1029,197.3C1097.1,171,1166,149,1234,165.3C1302.9,181,1371,235,1406,261.3L1440,288L1440,320L1405.7,320C1371.4,320,1303,320,1234,320C1165.7,320,1097,320,1029,320C960,320,891,320,823,320C754.3,320,686,320,617,320C548.6,320,480,320,411,320C342.9,320,274,320,206,320C137.1,320,69,320,34,320L0,320Z"></path></svg>