<?xml version="1.0" standalone="no"?><svg xmlns="http://www.w3.org/2000/svg" viewBox="0 0 1440 320"><path fill="#F9A8D4" fill-opacity="1" d="M0,288L34.3,240C68.6,192,137,96,206,58.7C274.3,21,343,43,411,80C480,117,549,171,617,176C685.7,181,754,139,823,149.3C891.4,160,960,224,1029,224C1097.1,224,1166,160,1234,144C1302.9,128,1371,160,1406,176L1440,192L1440,320L1405.7,320C1371.4,320,1303,320,1234,320C1165.7,320,1097,320,1029,320C960,320,891,320,823,320C754.3,320,686,320,617,320C548.6,320,480,320,411,320C342.9,320,274,320,206,320C137.1,320,69,320,34,320L0,320Z"></path></svg>